<?xml version="1.0" encoding="utf-8"?>
<!-- Generator: Adobe Illustrator 15.0.0, SVG Export Plug-In  -->
<!DOCTYPE svg PUBLIC "-//W3C//DTD SVG 1.1//EN" "http://www.w3.org/Graphics/SVG/1.1/DTD/svg11.dtd" [
	<!ENTITY ns_flows "http://ns.adobe.com/Flows/1.0/">
]>
<svg version="1.1"
	 xmlns="http://www.w3.org/2000/svg" xmlns:xlink="http://www.w3.org/1999/xlink" xmlns:a="http://ns.adobe.com/AdobeSVGViewerExtensions/3.0/"
	 x="0px" y="0px" width="250px" height="50px" viewBox="-3.554 -6.124 250 50"
	 overflow="visible" enable-background="new -3.554 -6.124 250 50" xml:space="preserve">
<defs>
</defs>
<path d="M63.18,33.552h3.046v-4.911H45.543v4.911h9.579v-0.54h-0.835v-1.08h9.925v1.08H63.18V33.552z M35.421,31.684v-2.701h-2.8
	l-0.737,0.491v4.078h3.489v-0.638h-0.541v-1.23H35.421z M40.188,28.982h-3.734v2.653h3.734V28.982z M36.453,33.012v0.54h3.734v-0.54
	H36.453z M139.821,18.372h3.486v-0.837h0.934v0.246h0.345v-0.295h1.375v0.786h1.967v3.932h-1.574v2.309l0.32,0.319h1.154v-0.909
	h-0.885v-0.688h0.836v-0.442h0.295v0.49h0.491v-0.538h0.393v0.538h0.786l0.343,0.147h6.88v1.082h-1.523v2.26h84.943l1.032,1.032
	v0.811h-3.979v0.441h-0.663v-0.441h-1.695v3.111l4.349,0.032v-1.155h-0.886v-1.252h2.801v1.252h-0.737v1.163l2.285,0.018
	l-5.305,4.716v1.252H4.495L3.5,36.757v-1.989H3.095v-1.807h1.4l-0.736-4.198H0v-1.031l3.242-0.959h96.292v-1.474h-1.08v-1.522h5.601
	V19.06h1.72v5.501h1.817v2.212h0.973v-1.885h-0.392v-1.177h0.588v-1.304h-1.438v-2.549h1.307v-1.502h0.848v-0.588h1.438v0.588h1.11
	v0.588h-0.979v0.522h-1.176v0.719h0.443v1.153h4.941l2.8-1.985h0.639v-8.103h-0.95v-1.15h13.055v1.15h-0.903v9.577h0.688V18.96
	h1.376v0.885h0.539v0.442h0.837v-0.59h0.884v-0.442h0.688V15.57l-0.688-0.884h-2.161v-0.884h2.995v-3.784h-2.701V9.281h2.701V8.495
	h-0.393V7.71h-0.589V6.875h1.769v0.442h1.326V8.3h-0.688v0.934h1.08v1.375h-0.392V9.921h-0.639v2.801h2.309v1.719h-1.572
	l-0.638,1.031v1.769h2.015L139.821,18.372z M8.302,33.258v-1.474l-2.26,0.048l0.542,1.426H8.302z M8.302,30.459v-1.868H5.404
	l0.097,0.638h2.114v1.23H8.302z M234.417,31.723v-3.107h-6.115v0.441h-0.591v0.337h4.025v2.31L234.417,31.723z M226.827,31.667
	v-2.61h-1.18v2.603L226.827,31.667z M225.133,31.653v-2.597h-0.442v-0.441h-1.99v3.021L225.133,31.653z M191.159,33.453v-4.42
	h-3.094v4.42H191.159z M187.279,33.453v-4.42h-2.506v4.42H187.279z M184.134,33.453v-4.42h-3.044v4.42H184.134z M180.204,33.453
	v-4.42h-4.373v4.42H180.204z M44.707,33.552v-0.54h-3.93v0.54H44.707z M44.707,31.636v-2.653h-3.93v2.653H44.707z"/>
<path d="M46.978,23.9h-4.03l-1.453,1.049h-2.152l-0.479-0.184l-0.093-0.498L38.605,23.9h-0.589l-0.238,0.33v1.197l0.459,0.367h2.447
	l4.343-0.33l0.128,0.393c-0.076,0.067-0.124,0.164-0.124,0.271c0,0.202,0.163,0.365,0.364,0.365c0.199,0,0.363-0.163,0.363-0.365
	c0-0.185-0.14-0.336-0.318-0.357l-0.076-0.338l1.687-0.266l0.276-0.219v-0.792L46.978,23.9z"/>
<path d="M61.61,23.9h-4.029l-1.454,1.049h-2.152l-0.479-0.184l-0.092-0.498L53.238,23.9H52.65l-0.24,0.33v1.197l0.461,0.367h2.447
	l4.342-0.33l0.128,0.393c-0.075,0.067-0.124,0.164-0.124,0.271c0,0.202,0.163,0.365,0.364,0.365s0.363-0.163,0.363-0.365
	c0-0.185-0.139-0.336-0.318-0.357l-0.075-0.338l1.686-0.266l0.276-0.219v-0.792L61.61,23.9z"/>
<path d="M76.847,23.954h-4.029l-1.453,1.049h-2.153l-0.479-0.185l-0.092-0.495l-0.165-0.369h-0.589l-0.239,0.332v1.195l0.46,0.368
	h2.446l4.343-0.332l0.128,0.396c-0.076,0.065-0.123,0.162-0.123,0.272c0,0.201,0.162,0.362,0.363,0.362s0.363-0.161,0.363-0.362
	c0-0.186-0.139-0.338-0.318-0.359l-0.076-0.34l1.687-0.263l0.276-0.221v-0.792L76.847,23.954z"/>
<polyline stroke="#333333" stroke-width="1.1486" points="116.718,3.673 116.718,4.445 118.43,6.57 "/>
<line stroke="#000000" stroke-width="2.2973" x1="95.757" y1="18.294" x2="104.774" y2="23.383"/>
<line stroke="#000000" stroke-width="2.8716" x1="118.43" y1="2.706" x2="118.43" y2="10.437"/>
<line stroke="#000000" stroke-width="2.2973" x1="132.896" y1="0" x2="132.896" y2="9.728"/>
<line stroke="#000000" stroke-width="1.1486" x1="97.163" y1="19.087" x2="104.453" y2="20.033"/>
<line stroke="#000000" stroke-width="1.723" x1="134.274" y1="9.728" x2="131.956" y2="20.84"/>
</svg>
