<?xml version="1.0" encoding="utf-8"?>
<!-- Generator: Adobe Illustrator 15.0.0, SVG Export Plug-In  -->
<!DOCTYPE svg PUBLIC "-//W3C//DTD SVG 1.1//EN" "http://www.w3.org/Graphics/SVG/1.1/DTD/svg11.dtd" [
	<!ENTITY ns_flows "http://ns.adobe.com/Flows/1.0/">
]>
<svg version="1.1"
	 xmlns="http://www.w3.org/2000/svg" xmlns:xlink="http://www.w3.org/1999/xlink" xmlns:a="http://ns.adobe.com/AdobeSVGViewerExtensions/3.0/"
	 x="0px" y="0px" width="200px" height="50px" viewBox="-3.625 -1.063 200 50"
	 overflow="visible" enable-background="new -3.625 -1.063 200 50" xml:space="preserve">
<defs>
</defs>
<path fill-rule="evenodd" clip-rule="evenodd" d="M146.299,39.789l0.097-2.088l-4.885,0.355l1.073-2.939h2.024v-0.942h-2.223v-0.59
	h-3.598v0.59h-1.335v-4.128c0-0.487-0.398-0.884-0.886-0.884h-1.977v-3.841h1.407v-3.256h-1.407V21.1h1.407v-3.256h-1.411
	c-0.095-2.598-2.247-4.695-4.867-4.695h-1.372l-2.195-1.767c0.011-0.027,0.022-0.056,0.031-0.086
	c0.332-0.028,0.592-0.311,0.592-0.646V8.835l-0.556-0.447v-2.42l0.012-0.003c0.137-0.037,0.091-0.213,0.062-0.321l0.182-0.05
	c0.028,0.11,0.077,0.286,0.214,0.248l0,0c0.139-0.036,0.091-0.213,0.062-0.321l0.181-0.048c0.03,0.108,0.077,0.284,0.216,0.247l0,0
	c0.138-0.037,0.091-0.213,0.062-0.322l0.105-0.029c0.569,1.196,1.575,2.094,2.766,2.549l-0.959-3.576l1.123-0.302l-0.075-0.283
	l0.158-0.043l0.074,0.278l0.221-0.059l-0.074-0.278l0.657-0.176l0.083,0.312c0.527-0.143,0.308-0.96-0.22-0.818l0.084,0.311
	l-0.657,0.177l-0.074-0.278l-0.221,0.06l0.074,0.277l-0.16,0.042l-0.075-0.283l-1.123,0.301L127.958,0
	c-0.803,0.989-1.226,2.269-1.119,3.589l-0.106,0.029c-0.028-0.108-0.077-0.285-0.215-0.247l0,0
	c-0.138,0.036-0.092,0.212-0.062,0.322l-0.18,0.048c-0.179-0.662,0.126-1.215-0.247-1.586c-0.295-0.294-0.884-0.191-1.266-0.191
	c0.013-0.025,0.02-0.053,0.02-0.081l0,0c0-0.214-0.272-0.216-0.44-0.216V1.389c0.644,0-1.73,0-1.73,0v0.278
	c-0.168,0-0.441,0.002-0.441,0.216l0,0c0,0.1,0.088,0.186,0.205,0.209L119.47,4.43v1.814c0,0.328,0.248,0.604,0.569,0.645
	l-0.013,0.141l-2.204,1.773v2.258c0,0.445,0.364,0.809,0.81,0.809h1.395v1.953c-0.729,0.431-1.341,1.048-1.764,1.783h-2.836v3.254
	h2.189v3.68h-3.147v1.166c-0.372,0-0.966-0.016-0.966,0.471c0,0.483,0.594,0.469,0.966,0.469v0.612
	c-0.372,0-0.966-0.014-0.966,0.471s0.594,0.471,0.966,0.471v0.611c-0.372,0-0.966-0.016-0.966,0.471l0,0
	c0,0.484,0.594,0.47,0.966,0.47v0.612c-0.372,0-0.966-0.015-0.966,0.471l0,0c0,0.483,0.594,0.47,0.966,0.47v0.612
	c-0.372,0-0.966-0.015-0.966,0.471l0,0c0,0.484,0.594,0.47,0.966,0.47v0.855h1.322v1.421h-4.74V31.84l-1.538-1.055h-1.133
	c-0.372,0-0.406,0.348-0.406,0.632l-0.866-0.595c0-0.523,0.144-1.574-0.804-1.574h-0.759c0.054-0.169,0.239-0.581,0.166-0.76
	c-0.062-0.15-0.377-0.368-0.204-0.884l1.277,0.736l-0.065,0.111l1.167,0.673l0.382-0.663l-0.76-0.438l0.54-0.936l0.761,0.438
	l0.406-0.703l-0.76-0.439l0.5-0.866l0.76,0.438l0.423-0.732l-0.76-0.439l0.524-0.907l0.76,0.438l0.383-0.662l-1.166-0.673
	l-0.064,0.11l-2.118-1.223l0.064-0.11l-1.553-0.896l-1.055,0.073l-1.585-0.915l0.106-0.186l-2.28-1.317l-0.12,0.206
	c-0.949-0.474-2.439-0.725-2.831-0.811c0.27,0.297,1.233,1.463,2.118,2.048l-0.193,0.336c-0.949-0.476-2.44-0.727-2.832-0.812
	c0.271,0.296,1.232,1.462,2.117,2.047l-0.208,0.362c-0.95-0.475-2.441-0.726-2.832-0.811c0.27,0.296,1.232,1.462,2.118,2.048
	l-0.12,0.206l2.281,1.316L101,24.467l1.585,0.915l0.463,0.951l0.851,0.49c-0.049,0.056-0.063,0.385-0.036,0.449
	c0.154,0.156,0.249,0.371,0.249,0.608c0,0.48-0.307,0.471-0.249,0.846l0.165,0.521h-1.483l-3.792,3.05v2.246
	c0,0.442,0.363,0.805,0.805,0.805h4.128v3.156l-8.246-1.381l-1.797-2.682h1.448c0.369,0,0.671-0.302,0.671-0.67v-4.2
	c0-0.683-0.626-0.671-1.113-0.671l0.344-0.197l-0.13-0.228c0.098-0.056,0.255-0.147,0.183-0.271l0,0
	c-0.071-0.124-0.229-0.033-0.327,0.023l-0.093-0.162c0.097-0.057,0.255-0.147,0.183-0.271l0,0c-0.072-0.124-0.229-0.034-0.328,0.022
	l-0.093-0.16c0.097-0.058,0.255-0.15,0.183-0.272l0,0c-0.072-0.124-0.229-0.034-0.327,0.023l-0.094-0.162
	c0.098-0.058,0.255-0.148,0.184-0.272l0,0c-0.071-0.123-0.229-0.033-0.327,0.023l-0.056-0.095c1.008-0.859,1.615-2.062,1.747-3.331
	l-3.207,1.851l-0.582-1.006l-0.254,0.146l-0.083-0.142l0.249-0.145l-0.114-0.197l-0.249,0.144l-0.34-0.589l0.279-0.161
	c-0.273-0.474-1.006-0.05-0.733,0.423l0.279-0.16l0.34,0.588l-0.249,0.144l0.115,0.198l0.249-0.145l0.082,0.144l-0.255,0.146
	l0.582,1.007l-3.207,1.853c1.164,0.52,2.509,0.595,3.757,0.153l0.056,0.094c-0.099,0.058-0.255,0.149-0.185,0.272l0,0
	c0.072,0.123,0.23,0.033,0.328-0.023l0.094,0.162c-0.338,0.195-0.194,0.444,0.144,0.249l0.094,0.162
	c-0.072,0.041-0.163,0.083-0.191,0.162h-6.78v-1.455l-1.538-1.056h-1.133c-0.373,0-0.405,0.348-0.405,0.631l-0.867-0.592
	c0-0.525,0.144-1.577-0.804-1.577h-3.76l-0.261,0.211l-6.079-3.511c-0.182-0.145-0.541-0.72-0.758-0.748
	c-0.163,0.041-0.341,0.022-0.497-0.068c-0.157-0.09-0.262-0.235-0.307-0.397l-0.271-0.156c-0.162,0.043-0.34,0.023-0.497-0.066
	c-0.156-0.09-0.262-0.235-0.307-0.396l-0.24-0.139l-0.706,1.223l0.241,0.138c0.162-0.043,0.34-0.023,0.496,0.067
	c0.225,0.129,0.221,0.347,0.402,0.45l0.176,0.102c0.162-0.04,0.341-0.021,0.497,0.068c0.231,0.135,0.232,0.396,0.464,0.487
	l0.872,0.191l5.787,3.341l-1.202,0.969l-5.186-2.995c-0.182-0.146-0.541-0.72-0.759-0.749c-0.162,0.041-0.34,0.022-0.497-0.068
	c-0.157-0.09-0.262-0.234-0.307-0.396l-0.271-0.157c-0.163,0.042-0.34,0.022-0.497-0.068c-0.157-0.088-0.262-0.233-0.307-0.396
	l-0.241-0.138l-0.706,1.222l0.241,0.139c0.162-0.041,0.34-0.022,0.496,0.067c0.224,0.13,0.221,0.346,0.401,0.452l0.178,0.101
	c0.162-0.041,0.34-0.022,0.497,0.068c0.23,0.133,0.231,0.396,0.463,0.488l0.871,0.189l4.894,2.826l-0.872,0.702v2.246
	c0,0.442,0.361,0.804,0.804,0.804h2.484v2.638h-5.708c0.191-0.205,0.105-1.179,0.105-1.496V31.7l-0.384-0.263v-0.684h-0.168v-0.76
	h-0.117v0.76h-0.168v0.373l-0.339-0.233c0-0.539,0.096-1.363-0.696-1.363h-3.254l-1.424,1.146l-2.435-1.404
	c-0.16-0.13-0.411-0.579-0.614-0.607c-0.131,0.034-0.275,0.019-0.402-0.054c-0.188-0.109-0.242-0.418-0.466-0.448
	c-0.131,0.034-0.276,0.019-0.401-0.054c-0.321-0.185-0.035-0.196-0.443-0.434l-0.571,0.988c0.41,0.235,0.276-0.018,0.597,0.167
	c0.188,0.109,0.239,0.416,0.466,0.447c0.131-0.035,0.275-0.019,0.402,0.054c0.187,0.108,0.188,0.322,0.375,0.395l0.705,0.155
	l2.198,1.269l-1.27,1.022v1.419h-3.271l-4.187,5.565l-5.545-0.13c0-0.897-0.282-1.703-0.92-2.291c0.146-0.014,0.26-0.137,0.26-0.285
	v-1.336l-1.084-0.743c-0.103-0.031-0.881-0.035-1,0.083c-0.097,0.097-0.084,0.233-0.084,0.361l-0.611-0.418
	c0-1.054-0.045-1.11-1.101-1.11c0.272-0.856-0.06-0.377-0.06-0.963c0-0.067,0.012-0.134,0.032-0.195l0.9,0.52l-0.046,0.078
	l0.823,0.475l0.27-0.468l-0.536-0.309l0.381-0.66l0.536,0.31l0.286-0.497l-0.536-0.309l0.353-0.61l0.535,0.31l0.298-0.518
	l-0.535-0.309l0.369-0.64l0.536,0.31l0.27-0.468l-0.821-0.476l-0.045,0.079l-1.494-0.862l0.045-0.078l-1.095-0.632l-0.744,0.053
	l-1.117-0.645l0.075-0.131l-1.606-0.929l-0.085,0.146c-0.669-0.334-1.719-0.512-1.995-0.571c0.19,0.208,0.869,1.03,1.493,1.442
	l-0.052,0.09l-0.084,0.146c-0.669-0.336-1.72-0.512-1.997-0.571c0.19,0.209,0.869,1.03,1.494,1.441l-0.148,0.257
	c-0.669-0.335-1.72-0.512-1.996-0.571c0.19,0.209,0.868,1.029,1.493,1.442l-0.084,0.146l1.607,0.929l0.076-0.131l1.117,0.645
	l0.326,0.67l0.6,0.347l-0.026,0.316c0.108,0.11,0.175,0.262,0.175,0.429c0,0.586-0.331,0.106-0.059,0.963h-1.046l-2.672,2.151
	c0,0.424-0.046,1.29,0.006,1.663c-0.173,0.226-0.313,0.478-0.414,0.749l-4.341-0.728l-2.368-3.532c-6.917,0-26.531,0-33.447,0
	L18.738,45.48l1.114,2.393h169.804l2.888-5.662l0.206-4.51l-10.682,0.777v-0.102l-1.27-1.023l2.198-1.269
	c0.193-0.074,0.707-0.066,0.832-0.229c0.036-0.13,0.121-0.247,0.249-0.32c0.187-0.109,0.481-0.002,0.619-0.181
	c0.036-0.132,0.122-0.248,0.248-0.321c0.321-0.186,0.188,0.069,0.596-0.166l-0.57-0.988c-0.407,0.236-0.121,0.247-0.441,0.433
	c-0.189,0.11-0.48,0-0.62,0.182c-0.037,0.129-0.122,0.247-0.248,0.32c-0.187,0.108-0.373,0.001-0.529,0.127l-0.486,0.533
	l-2.436,1.406l-1.424-1.146h-3.255c-0.792,0-0.695,0.824-0.695,1.364l-0.339,0.232v-0.375h-0.168v-0.758h-0.116v0.758h-0.168v0.685
	l-0.384,0.264v1.188l-5.603,0.407v-2.34h2.483c0.443,0,0.805-0.363,0.805-0.805v-2.247l-0.872-0.702l4.894-2.825
	c0.217-0.085,0.893-0.107,1.029-0.282c0.044-0.161,0.148-0.306,0.306-0.396c0.157-0.09,0.335-0.11,0.497-0.067l0.27-0.156
	c0.047-0.16,0.151-0.307,0.31-0.396c0.155-0.09,0.332-0.109,0.495-0.067l0.24-0.139l-0.705-1.223l-0.24,0.139
	c-0.045,0.161-0.149,0.308-0.308,0.397c-0.222,0.129-0.409,0.017-0.591,0.121l-0.176,0.103c-0.046,0.161-0.152,0.307-0.308,0.397
	c-0.23,0.132-0.458,0.001-0.654,0.157l-0.602,0.659l-5.187,2.994l-1.201-0.968l5.786-3.341c0.219-0.085,0.894-0.108,1.029-0.282
	c0.044-0.161,0.15-0.307,0.307-0.397c0.156-0.089,0.335-0.108,0.498-0.067l0.269-0.155c0.046-0.161,0.151-0.307,0.308-0.396
	c0.157-0.091,0.335-0.11,0.496-0.067l0.241-0.139l-0.706-1.223l-0.24,0.139c-0.044,0.162-0.149,0.306-0.307,0.396
	c-0.223,0.13-0.41,0.018-0.59,0.122l-0.178,0.102c-0.044,0.162-0.15,0.307-0.307,0.397c-0.23,0.132-0.459,0.001-0.654,0.159
	l-0.602,0.657l-6.078,3.511c-0.379-0.305-0.23-0.211-1.164-0.211h-2.856c-0.947,0-0.804,1.052-0.804,1.575l-0.867,0.595
	c0-0.284-0.033-0.633-0.405-0.633h-1.133l-1.537,1.055v1.457h-9.175c-0.369,0-0.672,0.303-0.672,0.671v4.069L146.299,39.789
	L146.299,39.789z M42.724,28.923l0.075-0.131l1.117,0.645l0.103,0.21l-0.233,0.018l-1.117-0.646L42.724,28.923L42.724,28.923z
	 M43.363,27.815l0.075-0.131l1.117,0.645l0.094,0.191l-0.213,0.016l-1.118-0.645L43.363,27.815L43.363,27.815z M101.815,23.053
	L101.815,23.053l0.107-0.186l1.585,0.915l0.146,0.299l-0.332,0.023l-1.585-0.915L101.815,23.053L101.815,23.053z M102.722,21.481
	l0.108-0.186l1.585,0.916l0.132,0.271l-0.301,0.021l-1.586-0.914L102.722,21.481z"/>
</svg>
