<?xml version="1.0" encoding="utf-8"?>
<!-- Generator: Adobe Illustrator 15.0.0, SVG Export Plug-In  -->
<!DOCTYPE svg PUBLIC "-//W3C//DTD SVG 1.1//EN" "http://www.w3.org/Graphics/SVG/1.1/DTD/svg11.dtd" [
	<!ENTITY ns_flows "http://ns.adobe.com/Flows/1.0/">
]>
<svg version="1.1"
	 xmlns="http://www.w3.org/2000/svg" xmlns:xlink="http://www.w3.org/1999/xlink" xmlns:a="http://ns.adobe.com/AdobeSVGViewerExtensions/3.0/"
	 x="0px" y="0px" width="150px" height="50px" viewBox="-3.879 -1.796 150 50"
	 overflow="visible" enable-background="new -3.879 -1.796 150 50" xml:space="preserve">
<defs>
</defs>
<path fill-rule="evenodd" clip-rule="evenodd" d="M24.255,46.408h112.299l5.417-10.622l0.271-5.932l-15.836,2.009l2.002-5.477
	h-5.763c0.096-0.365,0.029-2.079,0.029-2.574l-1.541-1.239l2.667-1.54c0.233-0.089,0.858-0.081,1.009-0.277
	c0.045-0.157,0.148-0.3,0.301-0.389c0.233-0.134,0.575,0.011,0.753-0.221c0.044-0.157,0.147-0.299,0.301-0.389
	c0.365-0.209,0.252,0.069,0.724-0.202l-0.692-1.198c-0.472,0.273-0.172,0.315-0.536,0.525c-0.235,0.136-0.572-0.015-0.753,0.22
	c-0.045,0.158-0.147,0.301-0.302,0.39c-0.226,0.13-0.45,0.002-0.642,0.155l-0.589,0.646l-2.954,1.706l-1.728-1.392h-3.949
	c-0.955,0-0.845,1-0.845,1.655l-0.411,0.282v-0.453h-0.204V21.17h-0.142v0.922h-0.204v0.829l-0.465,0.319v1.992
	c0,0.606,0.941,0.426,1.426,0.426l0.026,0.729H96.473v1.326h-3.175v-2.727h4.955v-0.97h-4.955v-0.97h1.87v-1.32h-1.87v-1.941
	c0-0.638-0.523-1.162-1.164-1.162h-2.475v-1.745h-3.613v1.745h-2.971c0.152-0.561-0.582-0.587-0.979-0.587v-0.629
	c0.381,0,0.994-0.002,0.994-0.483l0,0c0-0.482-0.613-0.484-0.994-0.484v-0.629c0.381,0,0.994-0.002,0.994-0.483l0,0
	c0-0.482-0.613-0.484-0.994-0.484v-0.631c0.381,0,0.994-0.001,0.994-0.483l0,0c0-0.482-0.613-0.483-0.994-0.483v-1.2h-4.493v-1.847
	c0.656,0,1.73,0.144,1.73-0.831V5.438c0.025,0.061,0.074,0.104,0.133,0.104l0,0c0.147,0,0.148-0.188,0.148-0.305h0.192
	c0,0.117,0.001,0.305,0.147,0.305l0,0c0.147,0,0.147-0.188,0.147-0.305h0.193c0,0.377,0.294,0.377,0.294,0h0.114
	c0.245,1.341,1.008,2.501,2.069,3.269V4.697h1.196V4.395h0.168V4.69h0.235V4.395h0.7v0.332c0.562,0,0.562-0.871,0-0.871v0.331h-0.7
	V3.89h-0.235v0.297h-0.168V3.884h-1.196v-3.81c-1.062,0.769-1.824,1.93-2.069,3.269h-0.114c0-0.376-0.294-0.376-0.294,0h-0.193
	c0-0.116,0-0.304-0.147-0.304l0,0c-0.146,0-0.147,0.188-0.147,0.304h-0.192c0-0.116-0.001-0.304-0.148-0.304l0,0
	c-0.059,0-0.107,0.044-0.133,0.105V0.678c0-0.807-0.963-0.669-1.499-0.669c0.014-0.025-2.576,0.106-2.456,0.131l-2.987,2.404v1.868
	c0,0.426,0.353,0.667,0.746,0.667l-2.44,1.966v2.322c0,0.569,0.473,0.831,0.98,0.831v1.847h-4.431v1.2
	c-0.38,0-0.995,0.001-0.995,0.483l0,0c0,0.482,0.614,0.483,0.995,0.483v0.631c-0.38,0-0.995,0.002-0.995,0.484l0,0
	c0,0.481,0.614,0.483,0.995,0.483v0.629c-0.38,0-0.995,0.002-0.995,0.484l0,0c0,0.481,0.614,0.483,0.995,0.483v0.629
	c-0.396,0-1.131,0.026-0.98,0.587h-0.3c-0.641,0-1.163,0.524-1.163,1.162v6.203h-5.646v-2.388L58.6,23.22v-0.99h-0.243v-1.1h-0.168
	v1.1h-0.244v0.541l-0.488-0.338c0-0.704,0.166-1.974-1.009-1.974h-4.711l-1.83,1.471l-5.313-3.065
	c-0.228-0.186-0.678-0.904-0.951-0.941c-0.203,0.052-0.427,0.028-0.623-0.085c-0.466-0.271-0.12-0.345-0.607-0.624
	c-0.227-0.132-0.46,0.008-0.74-0.152c-0.196-0.114-0.328-0.295-0.384-0.497l-0.303-0.175l-0.884,1.532l0.302,0.174
	c0.204-0.054,0.427-0.029,0.623,0.084c0.28,0.162,0.275,0.434,0.501,0.565c0.489,0.281,0.377-0.059,0.845,0.212
	c0.289,0.167,0.29,0.498,0.582,0.611l1.092,0.24l4.947,2.856l-2.011,1.617v2.816c0,0.555,0.454,1.008,1.008,1.008h4.198v0.078
	c-0.368,0.204-0.336,0.707-0.336,1.096H51.12c0-0.443-0.001-1.157-0.562-1.157l0,0c-0.561,0-0.562,0.714-0.562,1.157h-0.732
	c0-0.443-0.002-1.157-0.563-1.157l0,0c-0.561,0-0.562,0.714-0.562,1.157h-1.024v1.149l-12.46-1.477l-3.113-2.607
	c-9.099,0-22.433,0-31.53,0C-0.375,30.303,9.837,41.184,24.255,46.408z"/>
</svg>
