<?xml version="1.0" encoding="utf-8"?>
<!-- Generator: Adobe Illustrator 15.0.0, SVG Export Plug-In  -->
<!DOCTYPE svg PUBLIC "-//W3C//DTD SVG 1.1//EN" "http://www.w3.org/Graphics/SVG/1.1/DTD/svg11.dtd" [
	<!ENTITY ns_flows "http://ns.adobe.com/Flows/1.0/">
]>
<svg version="1.1"
	 xmlns="http://www.w3.org/2000/svg" xmlns:xlink="http://www.w3.org/1999/xlink" xmlns:a="http://ns.adobe.com/AdobeSVGViewerExtensions/3.0/"
	 x="0px" y="0px" width="100px" height="50px" viewBox="-2.416 -6.135 100 50"
	 overflow="visible" enable-background="new -2.416 -6.135 100 50" xml:space="preserve">
<defs>
</defs>
<path fill-rule="evenodd" clip-rule="evenodd" d="M87.963,37.73l7.078-6.027l0.127-4.717h-1.582
	c0.009-0.078,0.016-0.154,0.016-0.234l0,0c0-1.016-0.831-1.848-1.848-1.848h-8.468c-1.017,0-1.849,0.832-1.849,1.848l0,0
	c0,0.08,0.006,0.156,0.016,0.234h-1.46l-4.053,2.943c-0.005-1.83-0.011-3.906-0.011-3.178c-1.248,0-4.03,0-6.97,0v-5.158
	c0-0.592-0.37-0.854-0.834-0.936h-3.846v-6.785h-2.365l-0.987-7.994h5.074V5.273h-5.158l-0.168-1.367h1.444V3.299h-1.444V0h-0.55
	v3.299h-1.855v0.607h1.855v1.367h-1.855v0.605h1.855v7.994h-1.815v1.279h-3.738v0.998c-0.26,0-0.828-0.035-0.828,0.402
	s0.568,0.402,0.828,0.402v0.525c-0.26,0-0.828-0.037-0.828,0.402l0,0c0,0.438,0.568,0.4,0.828,0.4v0.525
	c-0.26,0-0.828-0.035-0.828,0.402l0,0c0,0.439,0.568,0.402,0.828,0.402v0.523c-0.254,0-0.952-0.012-0.818,0.49h-2.471v-1.453h-3.004
	v1.453h-2.06c-0.532,0-0.967,0.434-0.967,0.967v1.613h-1.558v1.1h1.558v5.842l-1.78-0.021L23.479,27.82l-0.323-1.744H11.561v-1.186
	H0.077c-1.119,6.049,10.34,6.992,9.503,12.84H87.963z"/>
</svg>
