<?xml version="1.0" encoding="utf-8"?>
<!-- Generator: Adobe Illustrator 15.0.0, SVG Export Plug-In  -->
<!DOCTYPE svg PUBLIC "-//W3C//DTD SVG 1.1//EN" "http://www.w3.org/Graphics/SVG/1.1/DTD/svg11.dtd" [
	<!ENTITY ns_flows "http://ns.adobe.com/Flows/1.0/">
]>
<svg version="1.1"
	 xmlns="http://www.w3.org/2000/svg" xmlns:xlink="http://www.w3.org/1999/xlink" xmlns:a="http://ns.adobe.com/AdobeSVGViewerExtensions/3.0/"
	 x="0px" y="0px" width="150px" height="50px" viewBox="-3.201 -4.152 150 50"
	 overflow="visible" enable-background="new -3.201 -4.152 150 50" xml:space="preserve">
<defs>
</defs>
<polygon points="35.828,13.25 35.382,13.25 35.382,6.742 35.828,6.742 35.828,13.25 "/>
<polygon points="36.757,13.25 36.312,13.25 36.312,6.742 36.757,6.742 36.757,13.25 "/>
<polygon points="38.766,13.25 38.022,13.25 38.022,1.24 38.766,1.24 38.766,13.25 "/>
<polygon points="40.245,13.25 39.799,13.25 39.799,0 40.245,0 40.245,13.25 "/>
<polygon points="42.88,13.365 42.433,13.365 42.433,6.742 42.88,6.742 42.88,13.365 "/>
<path d="M144.113,29.953c-0.94-0.462-2.314-0.896-3.314-1.306V25.73c-1,0.438-0.726,1.341-0.993,2.479
	c-2.138-0.61-4.405-1.16-7.168-1.655c0.043,0.008,0.196,0.237,0.241,0.243l-0.256-7.95h-6.467c0,0-1.357,6.146-3.357,6.549v0.083
	c0,0,0.541-0.124,0.572-0.12c-23.215-2.814-56.411-3.084-71.894-3.062c-1.091-0.79-2.438-8.449-2.438-8.449h-19.24v9H17.841
	c-9.812,0-17.841,3.707-17.841,8c0,4.295,8.029,8,17.841,8h25.958v-1.118c0,0,49.172,0.794,80.289-2.977
	c-0.02,0.003-0.137,0.084-0.156,0.084l-0.084,0.479c1.619,0.406,2.309,6.531,2.309,6.531h6.467l0.368-7.797
	c2.712-0.49,4.71-1.395,6.814-1.994c0.268,1.137-0.007,1.679,0.993,2.116v-2.917C141.799,30.848,143.173,30.413,144.113,29.953z
	 M132.045,26.412c-0.104-0.019-0.208-0.036-0.312-0.054C131.837,26.376,131.941,26.394,132.045,26.412z M131.001,26.237
	c-0.091-0.015-0.184-0.03-0.276-0.046C130.817,26.207,130.91,26.223,131.001,26.237z M128.611,25.866
	c-0.049-0.007-0.099-0.015-0.149-0.022C128.513,25.852,128.562,25.859,128.611,25.866z M127.475,25.704
	c-0.046-0.008-0.094-0.014-0.142-0.021C127.381,25.69,127.429,25.696,127.475,25.704z M124.996,25.372
	c-0.004-0.001-0.008-0.001-0.014-0.002C124.988,25.371,124.992,25.371,124.996,25.372z M131.82,33.53
	c0.055-0.009,0.109-0.019,0.164-0.028C131.93,33.512,131.875,33.521,131.82,33.53z M127.358,34.217
	c0.028-0.004,0.055-0.008,0.082-0.012C127.413,34.209,127.387,34.213,127.358,34.217z M128.511,34.051
	c0.025-0.003,0.052-0.007,0.075-0.011C128.562,34.044,128.536,34.048,128.511,34.051z M130.769,33.705
	c0.053-0.009,0.103-0.017,0.155-0.026C130.871,33.688,130.821,33.696,130.769,33.705z"/>
</svg>
